<svg preserveAspectRatio="none" width="100%" height="100%" overflow="visible" style="display: block;" viewBox="0 0 20 19.9127" fill="none" xmlns="http://www.w3.org/2000/svg">
<g id="menu-board">
<path id="Vector" d="M18.2748 5.60864L15.4665 16.8344C15.2665 17.6724 14.5165 18.2532 13.6498 18.2532H2.69983C1.4415 18.2532 0.541514 17.0252 0.916514 15.8221L4.42484 4.60474C4.66651 3.82483 5.39152 3.28545 6.20819 3.28545H16.4582C17.2498 3.28545 17.9082 3.76668 18.1832 4.43044C18.3415 4.7872 18.3748 5.19379 18.2748 5.60864Z" stroke="var(--stroke-0, black)" stroke-width="1.3" stroke-miterlimit="10"/>
<path id="Vector_2" d="M13.3334 18.2532H17.3167C18.3917 18.2532 19.2334 17.3489 19.1584 16.2786L18.3334 4.97813" stroke="var(--stroke-0, black)" stroke-width="1.3" stroke-miterlimit="10" stroke-linecap="round" stroke-linejoin="round"/>
<path id="Vector_3" d="M8.06673 5.29336L8.9334 1.70913" stroke="var(--stroke-0, black)" stroke-width="1.3" stroke-miterlimit="10" stroke-linecap="round" stroke-linejoin="round"/>
<path id="Vector_4" d="M13.6501 5.30175L14.4335 1.7009" stroke="var(--stroke-0, black)" stroke-width="1.3" stroke-miterlimit="10" stroke-linecap="round" stroke-linejoin="round"/>
<path id="Vector_5" d="M6.41665 9.95626H13.0833" stroke="var(--stroke-0, black)" stroke-width="1.3" stroke-miterlimit="10" stroke-linecap="round" stroke-linejoin="round"/>
<path id="Vector_6" d="M5.58339 13.2752H12.2501" stroke="var(--stroke-0, black)" stroke-width="1.3" stroke-miterlimit="10" stroke-linecap="round" stroke-linejoin="round"/>
<g id="Vector_7" opacity="0">
</g>
</g>
</svg>
