<svg preserveAspectRatio="none" width="100%" height="100%" overflow="visible" style="display: block;" viewBox="0 0 23.3 23.3" fill="none" xmlns="http://www.w3.org/2000/svg">
<path id="Polygon 2" d="M1.1227 6.15C0.81812 6.62738 0.65 7.17605 0.65 7.74638V15.5536C0.65 16.6943 1.32248 17.7483 2.41413 18.3186L9.88587 22.2223C10.4317 22.5074 11.0408 22.65 11.65 22.65M1.1227 6.15C1.42727 5.67262 1.8683 5.26654 2.41413 4.98137L6.15 3.02956M1.1227 6.15L11.65 11.65M11.65 11.65V22.65M11.65 11.65L16.9137 8.9M11.65 22.65C12.2592 22.65 12.8683 22.5074 13.4141 22.2223L20.8859 18.3186C21.9775 17.7483 22.65 16.6943 22.65 15.5536V7.74638C22.65 7.17605 22.4819 6.62738 22.1773 6.15M22.1773 6.15C21.8727 5.67262 21.4317 5.26653 20.8859 4.98137L13.4141 1.07775C12.3225 0.507417 10.9775 0.507417 9.88587 1.07775L6.15 3.02956M22.1773 6.15L16.9137 8.9M16.9137 8.9L6.15 3.02956M16.9137 8.9V12.8722" stroke="var(--stroke-0, black)" stroke-width="1.3" stroke-linecap="round"/>
</svg>
