<svg preserveAspectRatio="xMidYMid meet" width="22" height="22" viewBox="0 0 20 20" fill="none" xmlns="http://www.w3.org/2000/svg">
<path id="Vector" d="M1.93548 8.06452C1.93548 7.53006 1.50221 7.09677 0.967742 7.09677C0.433277 7.09677 0 7.53006 0 8.06452H1.93548ZM8.70968 20C9.24413 20 9.67742 19.5667 9.67742 19.0323C9.67742 18.4978 9.24413 18.0645 8.70968 18.0645V20ZM0 8.06452C0 8.59897 0.433277 9.03226 0.967742 9.03226C1.50221 9.03226 1.93548 8.59897 1.93548 8.06452H0ZM8.70968 1.93548C9.24413 1.93548 9.67742 1.50221 9.67742 0.967742C9.67742 0.433277 9.24413 0 8.70968 0V1.93548ZM0.967742 7.09677C0.433277 7.09677 0 7.53006 0 8.06452C0 8.59897 0.433277 9.03226 0.967742 9.03226V7.09677ZM8.70968 9.03226C9.24413 9.03226 9.67742 8.59897 9.67742 8.06452C9.67742 7.53006 9.24413 7.09677 8.70968 7.09677V9.03226ZM7.74194 8.06452C7.74194 8.59897 8.17523 9.03226 8.70968 9.03226C9.24413 9.03226 9.67742 8.59897 9.67742 8.06452H7.74194ZM9.67742 0.967742C9.67742 0.433277 9.24413 0 8.70968 0C8.17523 0 7.74194 0.433277 7.74194 0.967742H9.67742ZM9.67742 8.06452C9.67742 7.53006 9.24413 7.09677 8.70968 7.09677C8.17523 7.09677 7.74194 7.53006 7.74194 8.06452H9.67742ZM7.74194 12.5806C7.74194 13.1151 8.17523 13.5484 8.70968 13.5484C9.24413 13.5484 9.67742 13.1151 9.67742 12.5806H7.74194ZM8.70968 18.0645C8.17523 18.0645 7.74194 18.4978 7.74194 19.0323C7.74194 19.5667 8.17523 20 8.70968 20V18.0645ZM20 12.5806C20 12.0462 19.5667 11.6129 19.0323 11.6129C18.4978 11.6129 18.0645 12.0462 18.0645 12.5806H20ZM7.74194 19.0323C7.74194 19.5667 8.17523 20 8.70968 20C9.24413 20 9.67742 19.5667 9.67742 19.0323H7.74194ZM9.67742 12.5806C9.67742 12.0462 9.24413 11.6129 8.70968 11.6129C8.17523 11.6129 7.74194 12.0462 7.74194 12.5806H9.67742ZM8.70968 0C8.17523 0 7.74194 0.433277 7.74194 0.967742C7.74194 1.50221 8.17523 1.93548 8.70968 1.93548V0ZM18.0645 12.5806C18.0645 13.1151 18.4978 13.5484 19.0323 13.5484C19.5667 13.5484 20 13.1151 20 12.5806H18.0645ZM19.0323 13.5484C19.5667 13.5484 20 13.1151 20 12.5806C20 12.0462 19.5667 11.6129 19.0323 11.6129V13.5484ZM8.70968 11.6129C8.17523 11.6129 7.74194 12.0462 7.74194 12.5806C7.74194 13.1151 8.17523 13.5484 8.70968 13.5484V11.6129ZM0 8.06452V13.871H1.93548V8.06452H0ZM0 13.871C0 17.256 2.74406 20 6.12903 20V18.0645C3.81299 18.0645 1.93548 16.187 1.93548 13.871H0ZM6.12903 20H8.70968V18.0645H6.12903V20ZM1.93548 8.06452V6.12903H0V8.06452H1.93548ZM1.93548 6.12903C1.93548 3.81299 3.81299 1.93548 6.12903 1.93548V0C2.74406 0 0 2.74406 0 6.12903H1.93548ZM6.12903 1.93548H8.70968V0H6.12903V1.93548ZM0.967742 9.03226H8.70968V7.09677H0.967742V9.03226ZM9.67742 8.06452V0.967742H7.74194V8.06452H9.67742ZM7.74194 8.06452V12.5806H9.67742V8.06452H7.74194ZM8.70968 20H13.871V18.0645H8.70968V20ZM13.871 20C17.256 20 20 17.256 20 13.871H18.0645C18.0645 16.187 16.187 18.0645 13.871 18.0645V20ZM20 13.871V12.5806H18.0645V13.871H20ZM9.67742 19.0323V12.5806H7.74194V19.0323H9.67742ZM8.70968 1.93548H13.871V0H8.70968V1.93548ZM13.871 1.93548C16.187 1.93548 18.0645 3.81299 18.0645 6.12903H20C20 2.74406 17.256 0 13.871 0V1.93548ZM18.0645 6.12903V12.5806H20V6.12903H18.0645ZM19.0323 11.6129H8.70968V13.5484H19.0323V11.6129Z" fill="#333333"/>
</svg>
