<svg width="24" height="30" viewBox="0 0 23.5 29.8669" fill="none" xmlns="http://www.w3.org/2000/svg" aria-hidden="true">
  <path
    d="M19.691 13.3C19.6912 13.2784 19.6912 13.2567 19.6912 13.2349C19.6912 8.84927 16.1359 5.29397 11.7503 5.29397C7.36459 5.29397 3.8093 8.84927 3.8093 13.2349L3.80904 14.2276C3.80904 17.2923 2.6516 20.0867 0.750011 22.1975C3.04353 23.0442 5.4616 23.6337 7.96923 23.9311C9.209 24.0781 10.4707 24.1538 11.75 24.1538C13.0295 24.1538 14.2914 24.0781 15.5313 23.9311C18.0387 23.6336 20.4566 23.0441 22.75 22.1975C20.8484 20.0867 19.691 17.2923 19.691 14.2276V13.3Z"
    fill="#6B7283"
  />
  <path
    d="M15.5313 23.9311C18.0387 23.6336 20.4566 23.0441 22.75 22.1975C20.8484 20.0867 19.691 17.2923 19.691 14.2276V13.3C19.6912 13.2784 19.6912 13.2567 19.6912 13.2349C19.6912 8.84927 16.1359 5.29397 11.7503 5.29397C7.36459 5.29397 3.8093 8.84927 3.8093 13.2349L3.80904 14.2276C3.80904 17.2923 2.6516 20.0867 0.750011 22.1975C3.04353 23.0442 5.4616 23.6337 7.96923 23.9311M15.5313 23.9311C14.2914 24.0781 13.0295 24.1538 11.75 24.1538C10.4707 24.1538 9.209 24.0781 7.96923 23.9311M15.5313 23.9311C15.6543 24.3141 15.7208 24.7225 15.7208 25.1464C15.7208 27.3392 13.9431 29.1169 11.7503 29.1169C9.55743 29.1169 7.77979 27.3392 7.77979 25.1464C7.77979 24.7225 7.84621 24.3141 7.96923 23.9311"
    stroke="#6B7283"
    stroke-width="1.5"
    stroke-linecap="round"
    stroke-linejoin="round"
  />
</svg>
